<?xml version="1.0" encoding="utf-8"?>
<!-- Generator: Adobe Illustrator 27.4.0, SVG Export Plug-In . SVG Version: 6.00 Build 0)  -->
<svg version="1.1" id="Layer_1" xmlns="http://www.w3.org/2000/svg" xmlns:xlink="http://www.w3.org/1999/xlink" x="0px" y="0px"
	 viewBox="0 0 583.66 67.4" enable-background="new 0 0 583.66 67.4" xml:space="preserve">
<g>
	<rect x="-11.42" y="12.67" fill="none" width="606.5" height="74.65"/>
	<path d="M45.43,7.48l-4.14,4.64l0.76,0.77l3.38-3.79v1l-2.9,3.32l0.69,0.77l2.21-2.47v1.08l-1.73,1.93l0.69,0.77l1.04-1.08v1
		l-0.55,0.62l0.55,0.62H31.57l-0.83-0.77l-4.48,5.1v1.62l5.31-5.95v1l-5.31,5.95v1.62l5.31-5.95v1l-5.31,6.03v1.62l5.31-6.03v1.08
		l-5.31,5.95v1.62l5.31-5.95v1l-5.31,6.03v1.55l5.31-5.95v1.08l-5.31,5.95v1.62l5.31-5.95v1l-5.31,6.03v1.55l5.31-5.95v1.08
		l-5.31,5.95v1.62l5.31-6.03v1.08l-5.31,6.03v1.55l5.31-5.95v1.08l-5.31,5.95v1.62l5.31-6.03v1.08l-5.31,6.03v1.55l5.31-5.95v1.08
		l-5.31,5.95v1.62l5.31-6.03v1.08l-5.31,5.95v1.62l5.31-5.95v1.08l-5.04,5.64l0.69,0.85l4.35-4.95v1.08l-3.86,4.33l0.69,0.85
		l3.17-3.56v1l-2.69,3.01l0.76,0.85l1.93-2.24v1.08l-1.45,1.7l0.69,0.77l0.76-0.85v1l-0.28,0.39l0.28,0.31H20.87V16.68H7.07V6.87
		h0.9L7.48,7.41l0.76,0.77l1.1-1.31h0.97L8.66,8.72l0.76,0.77l2.35-2.63h0.97L9.9,10.04l0.69,0.77l3.52-3.94h0.97l-4,4.48l0.41,0.46
		h0.62l4.42-4.95h0.97l-4.42,4.95h1.45l4.35-4.95h0.97l-4.42,4.95h1.45l4.42-4.95h0.9l-4.35,4.95h1.45l4.35-4.95h0.97l-4.42,4.95
		h1.45l4.42-4.95h0.9l-4.35,4.95h1.45l4.35-4.95h0.97l-4.42,4.95h1.45l4.42-4.95h0.9l-4.35,4.95h1.38l4.42-4.95h0.97l-4.42,4.95
		h1.45l4.42-4.95h0.9l-4.35,4.95h1.38l4.42-4.95h0.97l-4.42,4.95h1.45l4.35-4.95h0.97l-4.35,4.95h1.38l4.42-4.95h0.97l-4.42,4.95
		h1.45l4.35-4.95h0.41V7.48z M26.25,14.59l1.38-1.55l-0.76-0.7l-0.62,0.62V14.59z M26.25,17.3l2.69-3.01l-0.83-0.77l-1.86,2.16V17.3
		z M30.25,15.45l-0.83-0.7l-3.17,3.56v1.62L30.25,15.45z"/>
	<path d="M75.03,14.98v1.62l4.9-5.49v1.08l-4.9,5.41v1.62l4.9-5.41v1.08l-4.9,5.41v1.62l4.9-5.41v1.08l-4.9,5.41v1.62l4.9-5.41v1
		l-4.9,5.49v1.62l4.9-5.49v1.08l-4.9,5.41v1.62l4.9-5.41v1.08l-4.9,5.41v1.62l4.9-5.41v1.08l-4.9,5.41v1.62l4.9-5.41v1.08l-4.9,5.41
		v1.62l4.9-5.49v1.08l-4.9,5.41v1.62l4.9-5.41v1.08l-4.9,5.41v1.62l4.9-5.41v1.08l-4.9,5.41v1.62l4.9-5.41v1.08l-4.9,5.41v1.62
		l4.9-5.49v1.08l-4.9,5.41v1.62l4.9-5.41v1.08l-4.9,5.41v1.62l4.9-5.41v1.08l-4.9,5.41v0.39l0.62,0.62l4.28-4.79v1.08l-3.86,4.25
		l0.76,0.77l3.1-3.4v1l-2.62,2.94l0.76,0.77l1.86-2.09v1.08l-1.45,1.55l0.76,0.85l0.69-0.77v1.08l-0.21,0.15l0.21,0.23H70.2V38.55
		H55.16l-0.62-0.62l-4.21,4.71v1.62l4.83-5.41v1.08l-4.83,5.41v1.62l4.83-5.41v1.08l-4.83,5.41v1.62l4.83-5.49v1.08l-4.83,5.41v1.62
		l4.83-5.41v1.08l-4.83,5.41v1.62l4.83-5.41v1.08l-4.62,5.18l0.76,0.77l3.86-4.33v1.08l-3.45,3.79l0.76,0.85l2.69-3.09v1.08
		l-2.21,2.47l0.76,0.85l1.45-1.7v1.08l-1.03,1.16l0.76,0.77l0.28-0.31v0.62H45.5V6.87h0.83l-0.41,0.46l0.69,0.77l1.17-1.24h0.9
		l-1.59,1.78l0.76,0.85l2.28-2.63h0.97l-2.76,3.09l0.69,0.85l3.52-3.94h0.97l-4,4.48l0.76,0.77l4.69-5.26h0.21v0.85l-4.83,5.41v1.62
		l4.83-5.41v1l-4.83,5.49v1.62l4.83-5.49v1.08l-4.83,5.41v1.62l4.83-5.41v1.08l-4.83,5.41v1.62l4.83-5.41v1.08l-4.83,5.41v1.62
		l4.83-5.41v1l-4.83,5.49v1.62l4.83-5.49v1.08l-4.83,5.41v1.62l4.83-5.41v1.08l-4.83,5.41v1.62l4.83-5.41v0.46h0.55l-4.42,4.95h1.45
		l4.42-4.95h0.97l-4.49,4.95h1.45l4.48-4.95h0.97l-4.49,4.95h1.45l4.48-4.95h0.9l-4.42,4.95h1.45l4.42-4.95h0.97l-4.42,4.95h1.45
		l4.42-4.95h0.97l-4.48,4.95h1.45l4.49-4.95h0.97l-4.48,4.95h1.45l3.79-4.25l-0.69-0.7V6.87h0.07l0.69,0.85l0.76-0.85h0.97
		l-1.24,1.39l0.76,0.77l1.93-2.16h0.97l-2.42,2.71l0.69,0.77l3.17-3.48h0.97l-3.66,4.02l0.76,0.85l4.28-4.87h0.97l-4.83,5.41v1.62
		l4.9-5.41v1L75.03,14.98z M50.33,36.24l1.24-1.39l-0.76-0.77l-0.48,0.54V36.24z M50.33,38.94l2.48-2.86l-0.76-0.77l-1.73,2.01
		V38.94z M54.06,37.39l-0.76-0.77l-2.97,3.32v1.62L54.06,37.39z M72.14,30.59l-0.69-0.77l-3.38,3.71h1.45L72.14,30.59z M71.93,33.53
		l1.52-1.7l-0.76-0.77l-2.21,2.47H71.93z M74.69,33.14l-0.76-0.77l-1.1,1.16h1.45L74.69,33.14z"/>
	<path d="M113.74,7.25l-4.49,5.02l0.69,0.85l3.8-4.25v1.08l-3.31,3.71l0.69,0.85l2.62-2.94v1.08l-2.14,2.4l0.69,0.85l1.45-1.62v1.08
		l-1.04,1.08l0.76,0.85l0.28-0.31v0.62H91.53l-0.69-0.85l-4.07,4.64v1.62l4.76-5.41v1.08l-4.76,5.33v1.62l4.76-5.33v1.08l-4.76,5.33
		v1.62l4.76-5.33v1l-4.76,5.41v1.62l4.76-5.41v1.08l-4.76,5.41v1.47h0.14l4.76-5.41h0.97l-4.83,5.41h1.45l4.83-5.41h0.97l-4.83,5.41
		h1.45l4.83-5.41h0.9l-4.76,5.41h1.45l4.76-5.41h0.97l-4.76,5.41h1.45l4.76-5.41h0.97l-4.83,5.41h1.45l4.83-5.41h0.97l-4.83,5.41
		h0.76l0.34,0.39l4.14-4.64v1.08l-3.66,4.1l0.69,0.85l2.97-3.32v1.08l-2.55,2.78l0.69,0.85l1.86-2.01v1.08l-1.38,1.47l0.69,0.85
		l0.69-0.7v1.08l-0.21,0.15l0.21,0.23H91.53l-0.62-0.7l-4.14,4.64v1.62l4.76-5.41v1.08l-4.76,5.33v1.62l4.76-5.33v1.08l-4.76,5.33
		v1.62l4.76-5.33v1l-4.76,5.41v1.62l4.76-5.41v1.08l-4.76,5.41v1.62l4.76-5.41v0.39h0.62l-4.76,5.41h1.45l4.76-5.41h0.97l-4.83,5.41
		h1.45l4.83-5.41h0.97l-4.83,5.41h1.45l4.83-5.41h0.9l-4.76,5.41h1.45l4.76-5.41h0.97l-4.76,5.41h1.45l4.76-5.41h0.97l-4.83,5.41
		h1.45l4.83-5.41h0.97l-4.83,5.41h1.45l4.83-5.41h0.9l-4.76,5.41h1.45l4.76-5.41h0.97l-4.76,5.41h1.45l4.76-5.41h0.97v0.08
		l-4.83,5.33h0.34l0.55,0.62l3.93-4.33v1l-3.45,3.86l0.69,0.85l2.76-3.09v1.08l-2.35,2.55l0.69,0.85l1.66-1.78v1.08l-1.17,1.24
		l0.69,0.85l0.48-0.46v1H81.93V6.87h0.97l-0.48,0.54l0.76,0.77l1.17-1.31h0.97l-1.66,1.85l0.69,0.85l2.42-2.71h0.97l-2.9,3.25
		l0.76,0.77l3.59-4.02h0.9l-4.07,4.56l0.76,0.77v0.08V12.2l4.76-5.33h0.97l-4.76,5.33h1.45l4.76-5.33h0.97l-4.83,5.33h1.45
		l4.83-5.33h0.97l-4.83,5.33h1.45l4.83-5.33h0.9l-4.76,5.33h1.45l4.76-5.33h0.97l-4.76,5.33h1.45l4.76-5.33h0.97l-4.76,5.33h1.38
		l4.83-5.33h0.97l-4.83,5.33h1.45l4.83-5.33h0.9l-4.76,5.33h1.45l4.76-5.33h0.97l-4.76,5.33h1.45l4.76-5.33h0.62V7.25z M86.76,14.9
		l1.17-1.31l-0.69-0.85l-0.48,0.54V14.9z M86.76,17.61l2.42-2.71l-0.76-0.77l-1.66,1.85V17.61z M90.35,16.3l-0.69-0.85l-2.9,3.25
		v1.62L90.35,16.3z M86.76,34.77v1.62L88.01,35l-0.69-0.77L86.76,34.77z M88.49,35.54l-1.73,1.93v1.62l2.48-2.78L88.49,35.54z
		 M86.76,40.18v1.62l3.66-4.1l-0.76-0.85L86.76,40.18z"/>
	<path d="M158.04,50.69h0.21c-2.83,6.34-8.62,10.67-15.32,10.67c-6.69,0-12.49-4.33-15.32-10.67c-1.1-2.55-1.72-5.41-1.72-8.42
		V25.57c0-3.01,0.62-5.87,1.72-8.42c0.28-0.7,0.62-1.39,1.04-2.01l4.97-5.56c0.69-0.46,1.38-0.93,2.14-1.31l-8,8.97l0.97,0.54
		l9.38-10.51c0.41-0.15,0.83-0.23,1.24-0.39l-10,11.21l1.04,0.54l10.69-12.06c0.35,0,0.69-0.08,1.04-0.08l-11.11,12.44l0.97,0.54
		l0.28-0.23c1.17-2.78,3.1-4.95,5.59-6.26l5.8-6.49c0.28,0,0.55,0.08,0.83,0.08l-5.04,5.72c0.55-0.23,1.17-0.39,1.86-0.46l4.49-5.1
		c0.28,0.08,0.55,0.15,0.83,0.23l-4.28,4.71c0.21,0,0.41,0,0.62,0c0.28,0,0.55,0,0.83,0l4-4.41c0.21,0.08,0.48,0.15,0.69,0.23
		l-3.86,4.33c0.41,0.08,0.83,0.15,1.24,0.23l3.66-4.1c0.28,0.08,0.48,0.23,0.69,0.31l-3.59,4.02c0.35,0.15,0.69,0.31,1.04,0.46
		l3.52-3.94c0.21,0.15,0.41,0.31,0.62,0.39l-3.45,3.86c0.28,0.23,0.62,0.39,0.9,0.62l3.38-3.79c0.21,0.15,0.41,0.23,0.55,0.39
		l-3.38,3.86c0.28,0.15,0.55,0.46,0.83,0.7l3.38-3.79c0.21,0.15,0.34,0.31,0.48,0.46l-3.31,3.79c-0.07,0-0.07,0-0.07,0
		c0.28,0.31,0.48,0.54,0.76,0.85l3.38-3.79c0.14,0.15,0.35,0.31,0.48,0.54l-3.17,3.56l1.31,0.15l2.48-2.86
		c0.14,0.23,0.28,0.46,0.41,0.62l-2.07,2.32l1.31,0.15l1.38-1.47c0.14,0.23,0.21,0.39,0.35,0.62l-0.83,1l1.24,0.15l0.07-0.08
		c0.07,0,0.07,0.08,0.07,0.08l-8.9,4.71c-0.9-2.94-3.45-5.1-6.42-5.1c-2.97,0-5.52,2.16-6.42,5.1l-0.62-0.31l-4.83,5.41v1.7
		l5.17-5.87c-0.07,0.39-0.14,0.85-0.14,1.24l-5.04,5.64v1.62l5.04-5.64v1.08l-5.04,5.64v1.62l5.04-5.64v1.08l-5.04,5.64v1.62
		l5.04-5.64v1.08l-5.04,5.64v1.62l5.04-5.64v1.08l-5.04,5.64v1.62l5.04-5.64v1.08l-5.04,5.64c0,0.46,0.07,1,0.07,1.47l4.97-5.49
		v1.08l-4.76,5.33c0.07,0.46,0.14,0.85,0.28,1.24l4.49-4.95v1.08l-4.21,4.71c0.07,0.23,0.14,0.39,0.21,0.62
		c0.07,0.15,0.14,0.31,0.21,0.46l3.86-4.25c0,0.31,0.07,0.62,0.14,0.93l-3.66,4.02c0.21,0.39,0.35,0.7,0.55,1l3.45-3.86
		c0.07,0.23,0.21,0.46,0.35,0.7l-3.38,3.79c0.21,0.31,0.48,0.62,0.69,0.85l3.24-3.63c0.14,0.23,0.28,0.39,0.48,0.54l-3.24,3.63
		c0.28,0.31,0.48,0.54,0.76,0.77l3.24-3.63c0.14,0.15,0.35,0.31,0.55,0.46l-3.24,3.63c0.28,0.23,0.62,0.39,0.9,0.62l3.31-3.71
		c0.21,0.15,0.41,0.23,0.69,0.31l-3.38,3.79c0.34,0.15,0.69,0.31,1.03,0.46l3.59-4.02c0.21,0.08,0.41,0.08,0.69,0.08
		c0.07,0,0.14,0,0.21,0l-3.8,4.25c0.35,0.15,0.76,0.23,1.1,0.31l4.42-4.87c0.62-0.23,1.17-0.54,1.73-0.93l-5.31,5.95
		c0.48,0.08,0.9,0.15,1.38,0.15l8.28-9.27l0.62,0.31l-7.94,8.96c0.55-0.08,1.1-0.15,1.66-0.23l7.25-8.19l0.69,0.39l-6.62,7.42
		c0.97-0.39,1.86-0.85,2.69-1.47l4.9-5.49l0.69,0.39l-2.07,2.24l1.59-0.08l1.45-1.62l0.62,0.31l-1.04,1.16l1.59-0.08l0.48-0.54
		l0.62,0.31L158.04,50.69z M131.06,25.96l4.21-4.71l-1.04-0.54l-3.17,3.56c0,0.23,0,0.46,0,0.7V25.96z M131.2,23.1l2.41-2.78
		l-0.97-0.46l-1.04,1.16C131.41,21.71,131.27,22.4,131.2,23.1z M148.66,47.67c0.34-0.46,0.55-1.08,0.76-1.62l0.48,0.23L148.66,47.67
		z"/>
	<path d="M195.3,60.97h-10.35l-2.69-11.36h-11.87l-0.41-0.62l-6.28,7.03l-0.07,0.08l0.69,0.85l5.86-6.65l-0.34,1.39l-5.11,5.8
		l0.69,0.77l3.93-4.33l-0.35,1.47l-3.1,3.48l0.69,0.77l1.86-2.09l-0.35,1.47l-1.04,1.24l0.62,0.7h-10.35l12.21-54.1l0.48,0.62
		l0.55-0.62h0.97l-1.1,1.24l0.62,0.93l1.93-2.16h0.97l-2.48,2.78l0.62,0.85l3.24-3.63h0.97l-3.79,4.25l0.14,0.23l-0.35,1.62
		l5.45-6.11h0.97l-2.14,2.4l0.97,0.62l2.62-3.01h0.97l-3.04,3.32l0.97,0.62l3.52-3.94h0.48l0.07,0.46l-3.45,3.86l0.28,0.15
		l0.21,0.93l3.24-3.71l0.21,0.85l-3.31,3.71l0.28,1.31l3.31-3.71l0.21,0.85l-3.31,3.79l0.21,1.31l3.38-3.79l0.21,0.85l-3.38,3.79
		l0.28,1.31l3.38-3.79l0.21,0.85l-3.45,3.79l0.28,1.31l3.45-3.86l0.21,0.85l-3.45,3.94l0.28,1.31l3.45-3.94l0.21,0.85l-3.52,3.94
		l0.28,1.31l3.52-3.94l0.21,0.85l-3.52,3.94l0.21,1.31l3.59-3.94l0.21,0.85l-3.59,4.02l0.28,1.31l3.59-4.1l0.21,0.85l-3.66,4.1
		l0.28,1.31l3.66-4.1l0.21,0.85l-3.66,4.1l0.28,1.39l3.66-4.17l0.21,0.85l-3.73,4.17l0.28,1.31l3.73-4.25l0.21,0.85l-3.73,4.25
		l0.21,1.31l3.79-4.25l0.21,0.85l-3.8,4.25l0.28,1.39l3.79-4.33l0.21,0.85l-3.86,4.33l0.28,1.31l3.86-4.33l0.21,0.85l-3.86,4.33
		l0.28,1.31l3.93-4.41l0.14,0.85l-3.93,4.48l0.28,1.31l4-4.48l0.14,0.85l-3.93,4.48l0.21,1.31l4.07-4.48l0.14,0.85l-4,4.48
		l0.28,1.31l4.07-4.48l0.14,0.85l-4.07,4.56l0.28,1.31l4.14-4.64l0.14,0.85l-4.07,4.64l0.28,1.31l4.14-4.64l0.14,0.85l-3.73,4.25
		l0.83,0.62l3.24-3.56l0.14,0.85l-2.83,3.17l0.9,0.7l2.28-2.55l0.14,0.85l-1.86,2.09l0.83,0.7l1.38-1.55l0.14,0.85l-0.97,1.08
		l0.9,0.7l0.41-0.46l0.14,0.85v0.08H195.3z M169.56,48.37l-0.62-1l-4.55,5.18l-0.41,2.09L169.56,48.37z M164.66,51.15l3.86-4.41
		l-0.62-0.93l-2.83,3.25L164.66,51.15z M165.35,47.67l2.21-2.47l-0.62-0.93l-1.17,1.31L165.35,47.67z M176.46,43.27l4.07-4.56
		l-0.55-0.39l-3.66-19.09v-1.62l-6.35,7.11l-0.41,2.16l6.76-7.65l-0.28,1.39l-6.76,7.57l-0.41,2.09l6.76-7.57l-0.21,1.31l-6.83,7.65
		l-0.48,2.09l6.9-7.65l-0.28,1.31l-6.9,7.73l-0.41,2.09l6.9-7.73l-0.21,1.39l-6.97,7.73l-0.41,2.09l6.97-7.81l-0.28,1.39l-6.97,7.81
		l-0.21,1.16l-0.21,0.93l0.48-0.54l-0.28-0.39h0.62l6.14-6.88l-0.21,1.31l-4.97,5.56h1.45l4.42-4.95h0.97l-4.42,4.95h1.45l4.42-4.95
		h0.97l-4.42,4.95h1.45l4.42-4.95h0.97l-4.42,4.95H176.46z M170.25,23.41l6.07-6.8v-1.62l-5.66,6.34L170.25,23.41z M170.94,19.93
		l5.38-6.03v-1.62l-4.97,5.56L170.94,19.93z M171.63,16.45l4.69-5.26V9.57l-4.28,4.79L171.63,16.45z M178.88,43.27l3.1-3.48
		l-0.9-0.62l-3.66,4.1H178.88z M181.29,43.27l2.07-2.4l-0.83-0.62l-2.69,3.01H181.29z M183.71,43.27l1.1-1.24l-0.9-0.7l-1.66,1.93
		H183.71z M186.19,43.11l-0.83-0.7l-0.69,0.85h1.38L186.19,43.11z"/>
	<path d="M223.11,51.62l-3.73,4.17h0.21l0.55,0.77l2.97-3.32v1l-2.55,2.94l0.62,0.93l1.93-2.24v1.08l-1.52,1.78l0.62,0.93l0.9-1.08
		v1.08l-0.48,0.54l0.48,0.77h-28.01V6.87h0.83l-0.34,0.39l0.83,0.7l0.97-1.08h0.97l-1.45,1.55l0.83,0.7l2.07-2.24h0.9l-2.42,2.71
		l0.83,0.7l3.04-3.4h0.97l-3.45,3.86l0.14,0.15v1.31l4.69-5.26v1l-4.69,5.33v1.62l4.69-5.33v1.08l-4.69,5.33v1.55l4.69-5.26v1.08
		l-4.69,5.26v1.62l4.69-5.26v1.08l-4.69,5.26v1.62l4.69-5.26v1.08l-4.69,5.26v1.62l4.69-5.33v1.08l-4.69,5.33v1.62l4.69-5.33v1.08
		l-4.69,5.26v1.62l4.69-5.26v1.08l-4.69,5.26v1.62l4.69-5.26v1.08l-4.69,5.26v1.62l4.69-5.33v1.08l-4.69,5.33v1.62l4.69-5.33v1.08
		l-4.69,5.26v1.62l4.69-5.26v1.08l-4.69,5.26v1.62l4.69-5.26v1.08l-4.69,5.26v1.62l4.69-5.26v1l-4.69,5.33v1.62l4.69-5.33v1.08
		l-4.69,5.26v1.62l4.69-5.26v1.08l-4.69,5.26v1.62l4.69-5.26v0.7h0.35l-4.62,5.18h1.45l4.62-5.18h0.97l-4.62,5.18h1.45l4.62-5.18
		h0.9l-4.62,5.18h1.45l4.62-5.18H212l-4.62,5.18h1.45l4.62-5.18h0.97l-4.62,5.18h1.45l4.62-5.18h0.97l-4.62,5.18h1.45l4.62-5.18h0.9
		l-4.62,5.18h3.86l4.62-5.18h0.07V51.62z M216,55.79l4.62-5.18h0.97l-4.62,5.18H216z"/>
	<path d="M229.11,12.89v1.62l4.83-5.41v1.08l-4.83,5.41v1.62l4.83-5.41v1l-4.83,5.41v1.62l4.83-5.41v1.08l-4.83,5.41v1.62l4.83-5.41
		v1.08l-4.83,5.41v1.62l4.83-5.41v1.08l-4.83,5.41v1.62l4.83-5.41v1l-4.83,5.41v1.62l4.83-5.41v1.08l-4.83,5.41v1.62l4.83-5.41v1.08
		l-4.83,5.41V36l4.83-5.41v1.08l-4.83,5.41v1.62l4.83-5.41v1l-4.83,5.49v1.55l4.83-5.41v1.08l-4.83,5.41v1.62l4.83-5.41v1.08
		l-4.83,5.41v1.62l4.83-5.41v1.08l-4.83,5.41v1.62l4.83-5.41v1l-4.83,5.49v1.55l4.83-5.41v1.08l-4.83,5.41v1.62l4.83-5.41v1.08
		l-4.69,5.26l0.69,0.85l4-4.48v1.08l-3.52,3.94l0.76,0.77l2.76-3.09v1l-2.28,2.63l0.69,0.77l1.59-1.78v1.08l-1.1,1.24l0.76,0.85
		l0.34-0.46v0.85h-9.66V6.87h0.62l-0.34,0.39l0.76,0.77l1.04-1.16h0.97l-1.52,1.7l0.69,0.77l2.28-2.47h0.9l-2.69,3.01l0.76,0.77
		l3.38-3.79h0.97l-3.86,4.33l0.69,0.85l4.62-5.18h0.41v0.62L229.11,12.89z"/>
	<path d="M267.75,7.33l-4.42,4.95l0.69,0.85l3.73-4.25v1.08l-3.24,3.71l0.69,0.85l2.55-2.94v1.08l-2.07,2.4l0.69,0.85l1.38-1.62
		v1.08l-0.97,1.08l0.76,0.85l0.21-0.31v0.62H245.6l-0.69-0.77l-4.07,4.56v1.62l4.76-5.41v1.08l-4.76,5.33v1.62l4.76-5.33v1.08
		l-4.76,5.33v1.62l4.76-5.33v1l-4.76,5.41v1.62l4.76-5.41v1.08l-4.76,5.41v1.47h0.14l4.76-5.41h0.97l-4.83,5.41h1.45l4.83-5.41h0.97
		l-4.83,5.41h1.45l4.83-5.41h0.9l-4.76,5.41h1.45l4.76-5.41h0.97l-4.76,5.41h1.45l4.76-5.41h0.97l-4.83,5.41h1.45l4.83-5.41h0.97
		l-4.83,5.41h0.76l0.34,0.39l4.07-4.56v1l-3.66,4.1l0.76,0.85l2.9-3.32v1.08l-2.48,2.78l0.69,0.85l1.79-2.01v1.08l-1.31,1.47
		l0.69,0.85l0.62-0.7v1.08l-0.14,0.15l0.14,0.23H245.6l-0.62-0.7l-4.14,4.64v1.62l4.76-5.41v1.08l-4.76,5.33v1.62l4.76-5.33v1.08
		l-4.76,5.33v1.62l4.76-5.33v1l-4.76,5.41v1.62l4.76-5.41v1.08l-4.76,5.41v1.62l4.76-5.41v1.08l-4.48,5.02l0.76,0.85l3.73-4.25v1.08
		l-3.24,3.63l0.69,0.85l2.55-2.86v1l-2.07,2.4l0.69,0.77l1.38-1.55v1.08l-0.9,1l0.76,0.85l0.14-0.23v0.39h-9.59V6.87h0.97
		l-0.48,0.54l0.76,0.77l1.17-1.31h0.97l-1.66,1.85l0.69,0.85l2.42-2.71h0.97l-2.9,3.25l0.69,0.77l3.66-4.02h0.9l-4.07,4.56
		l0.76,0.77v0.08V12.2l4.76-5.33h0.97l-4.76,5.33h1.45l4.76-5.33h0.97l-4.83,5.33h1.45l4.83-5.33h0.97l-4.83,5.33h1.45l4.83-5.33
		h0.9l-4.76,5.33h1.45l4.76-5.33h0.97l-4.76,5.33h1.45l4.76-5.33h0.97l-4.83,5.33h1.45l4.83-5.33h0.97l-4.83,5.33h1.45l4.83-5.33
		h0.9l-4.76,5.33h1.45l4.76-5.33h0.97l-4.76,5.33h1.45l4.76-5.33h0.55V7.33z M240.84,14.9l1.17-1.31l-0.69-0.85l-0.48,0.54V14.9z
		 M240.84,17.61l2.42-2.71l-0.76-0.77l-1.66,1.85V17.61z M244.43,16.3l-0.69-0.85l-2.9,3.25v1.62L244.43,16.3z M240.84,34.77v1.62
		l1.24-1.39l-0.69-0.77L240.84,34.77z M242.56,35.54l-1.73,1.93v1.62l2.42-2.78L242.56,35.54z M240.84,40.18v1.62l3.66-4.1
		l-0.76-0.85L240.84,40.18z"/>
	<path d="M296.8,31.98v1.62l5.17-5.8v1.08l-5.17,5.8v1.62l5.17-5.8v1.08l-5.17,5.8v1.62l5.17-5.8v1.08l-5.17,5.8v1.62l5.17-5.8v1.08
		l-5.17,5.8c0,0.62-0.07,1.16-0.14,1.7l5.31-5.87v1l-5.52,6.18c-0.21,0.85-0.41,1.7-0.76,2.47l6.28-6.96v0.93v0.08l-5.66,6.34
		l1.04,0.54l4.49-5.1c0,0.39-0.07,0.77-0.14,1.24l-3.73,4.17l0.97,0.54l2.35-2.71c-0.14,0.54-0.28,1.08-0.41,1.62l-1.24,1.39
		l0.55,0.31c-2.76,6.34-8.56,10.67-15.32,10.67c-6.69,0-12.49-4.33-15.25-10.67c-1.17-2.55-1.79-5.41-1.79-8.42V25.57
		c0-3.01,0.62-5.87,1.72-8.42l0.69,0.39l8.83-9.89c0.41-0.15,0.9-0.31,1.38-0.46l-9.59,10.67l0.97,0.54l10.42-11.67
		c0.41-0.08,0.76-0.08,1.1-0.15l-10.83,12.21l0.97,0.46l1.66-1.78c0.83-1.39,1.86-2.47,3.04-3.4l6.69-7.57c0.34,0,0.62,0,0.97,0.08
		l-5.59,6.18c0.69-0.31,1.45-0.62,2.14-0.77l4.76-5.33c0.28,0.08,0.55,0.08,0.83,0.15l-4.42,4.95c0.41,0,0.9-0.08,1.31-0.08
		c0.07,0,0.14,0,0.21,0l4.07-4.56c0.28,0.08,0.48,0.15,0.76,0.23l-3.93,4.41c0.41,0.08,0.83,0.08,1.24,0.23L291,7.72
		c0.21,0.15,0.41,0.23,0.62,0.31l-3.59,4.1c0.35,0.15,0.69,0.23,1.1,0.39l3.52-3.94c0.21,0.15,0.41,0.23,0.62,0.39l-3.52,3.94
		c0.34,0.15,0.69,0.31,0.97,0.54l3.45-3.86c0.21,0.15,0.34,0.31,0.55,0.46l-3.38,3.79c0.28,0.23,0.55,0.46,0.83,0.7l3.38-3.79
		c0.21,0.15,0.34,0.31,0.55,0.46l-3.38,3.79c0.21,0.23,0.48,0.54,0.69,0.77l3.45-3.79c0.14,0.15,0.28,0.39,0.41,0.54l-3.38,3.79
		c0.21,0.31,0.41,0.62,0.62,0.93l3.45-3.86c0.14,0.23,0.28,0.39,0.41,0.62l-3.45,3.86c0.21,0.39,0.34,0.7,0.55,1.08l3.52-4.02
		c0.14,0.23,0.28,0.46,0.41,0.7l-3.66,4.02c0.14,0.39,0.28,0.77,0.41,1.16l3.73-4.17c0.14,0.15,0.21,0.39,0.28,0.54
		c0.07,0.08,0.07,0.15,0.07,0.15l-3.86,4.33c0.07,0.46,0.21,0.93,0.28,1.39l4.07-4.56c0.07,0.23,0.14,0.46,0.21,0.77l-4.21,4.71
		c0,0.31,0.07,0.7,0.07,1v0.54l4.48-5.02c0.07,0.23,0.14,0.54,0.21,0.85l-4.69,5.26v1.62l4.97-5.56c0,0.31,0.07,0.62,0.07,1
		l-5.04,5.64v1.62l5.11-5.8c0.07,0.15,0.07,0.31,0.07,0.46v0.62L296.8,31.98z M276.31,9.11l-6.14,6.88
		C271.61,13.13,273.75,10.73,276.31,9.11z M295.69,48.29l-4.28-2.24l-0.14,0.15c0.07-0.08,0.07-0.15,0.07-0.15
		c0.28-0.77,0.41-1.62,0.41-2.47V24.41c0-0.85-0.21-1.7-0.41-2.55c-0.97-2.94-3.52-5.1-6.49-5.1c-2.97,0-5.45,2.16-6.42,5.1
		l-1.04-0.54l-4.42,4.95v1.62l5.38-6.03h0.07c-0.14,0.46-0.21,0.85-0.28,1.31l-5.17,5.8v1.62l5.04-5.64v1.08l-5.04,5.64v1.62
		l5.04-5.64v1l-5.04,5.72V36l5.04-5.64v1l-5.04,5.64v1.62l5.04-5.64v1.08l-5.04,5.64v1.62l5.04-5.64v1.08l-5.04,5.64v0.39
		c0,0.39,0,0.77,0.07,1.16l4.97-5.56v1.08l-4.9,5.49c0.07,0.46,0.21,0.85,0.28,1.31l4.62-5.18v1.08l-4.42,4.95
		c0.14,0.39,0.28,0.77,0.48,1.16h-0.07l4-4.48c0,0.31,0.07,0.62,0.07,1l-3.73,4.17c0.14,0.39,0.35,0.7,0.55,1l3.52-3.94
		c0.07,0.31,0.14,0.54,0.28,0.77l-3.45,3.86c0.21,0.31,0.41,0.54,0.69,0.85l3.24-3.63c0.14,0.15,0.28,0.39,0.41,0.54l-3.24,3.63
		c0.28,0.31,0.48,0.54,0.76,0.85l3.24-3.63c0.14,0.15,0.35,0.31,0.48,0.46l-3.17,3.63c0.28,0.23,0.55,0.46,0.83,0.62l3.24-3.63
		c0.28,0.15,0.48,0.23,0.69,0.39l-3.31,3.71c0.34,0.15,0.62,0.31,0.97,0.54l3.45-3.94c0.28,0.08,0.55,0.15,0.9,0.15l-3.66,4.1
		c0.35,0.08,0.69,0.23,1.1,0.39l4.07-4.56c0.41-0.08,0.83-0.23,1.24-0.39l-4.55,5.1c0.41,0.08,0.9,0.15,1.31,0.23l8.42-9.51
		l0.69,0.31l-8.21,9.2c0.55,0,1.03,0,1.59-0.08l7.59-8.58l0.69,0.39l-7.11,7.96c0.76-0.23,1.45-0.54,2.14-0.85L295.69,48.29z
		 M272.99,25.18l3.73-4.17l-2.62-1.39l-0.14,0.23c-0.28,0.7-0.55,1.55-0.69,2.32l1.86-2.01l0.62,0.31l-2.69,3.01
		c0,0.46-0.07,1-0.07,1.47V25.18z M294.25,51l-2,2.24C292.93,52.62,293.62,51.85,294.25,51z"/>
	<path d="M334.13,51.62v1.62l5.52-6.18v1.08l-5.52,6.18v1.62l5.52-6.26v1.08l-5.31,5.95l0.83,0.7l4.49-5.02v1.08l-3.93,4.41
		l0.83,0.62l3.11-3.4v1l-2.55,2.86l0.9,0.7l1.66-1.93v1.08l-1.1,1.24l0.83,0.7l0.28-0.31c0,0.39,0,0.54,0,0.54h-9.87v-12.6
		c0-2.16-0.55-4.1-1.38-5.56c-1.24-2.01-3.11-3.25-5.24-3.25c-3.73,0-9.45,0-9.45,0v0.08l-4.83,5.41v1.62l4.83-5.41v1.08l-4.83,5.41
		v1.62l4.83-5.41v1.08l-4.83,5.41V52l4.83-5.41v1.08l-4.83,5.41v1.62l4.83-5.41v1.08l-4.83,5.41v0.39l0.55,0.62L313.7,52v1.08
		l-3.79,4.17l0.83,0.77l2.97-3.4v1.08l-2.48,2.78l0.76,0.77l1.73-1.93v1.08l-1.24,1.39l0.76,0.7l0.48-0.46v0.93h-9.66V6.63
		c0,0,0.34,0,0.83,0l-0.41,0.46l0.76,0.77l1.1-1.24h0.97l-1.59,1.78l0.76,0.77l2.28-2.55h0.97l-2.76,3.01l0.76,0.77l3.45-3.79h0.9
		l-3.86,4.33l0.69,0.7c0,0,0.07,0,0.21,0l4.42-5.02h0.97l-4.49,5.02h1.45l4.49-5.02h0.97l-4.49,5.02h1.45l4.49-5.02h0.9l-4.42,5.02
		h1.45l4.42-5.02h0.97l-4.48,5.02h1.45l4.49-5.02h0.97l-4.48,5.02h1.45l4.49-5.02h0.9l-4.42,5.02h1.38l4.48-4.95
		c0.28,0,0.55,0,0.83,0.08l-4.35,4.87h0.55c0.21,0,0.48,0,0.83,0.08l4.21-4.71c0.21,0.08,0.48,0.15,0.69,0.23l-4.07,4.64
		c0.34,0.08,0.76,0.15,1.17,0.31l4-4.48c0.21,0.08,0.41,0.23,0.62,0.31l-3.93,4.41c0.34,0.15,0.69,0.31,1.03,0.54l3.86-4.33
		c0.14,0.08,0.35,0.23,0.55,0.39l-3.79,4.25c0.07,0.08,0.14,0.15,0.21,0.15c0.21,0.15,0.41,0.31,0.62,0.54l3.79-4.25
		c0.21,0.15,0.35,0.31,0.55,0.46l-3.79,4.25c0.21,0.23,0.48,0.54,0.69,0.85l3.79-4.25c0.14,0.15,0.34,0.31,0.48,0.54l-3.86,4.25
		c0.21,0.31,0.41,0.7,0.55,1l3.93-4.41c0.14,0.23,0.28,0.46,0.41,0.62l-4.07,4.56c0.14,0.39,0.28,0.77,0.41,1.16l4.21-4.71
		c0.07,0.23,0.21,0.46,0.28,0.77l-4.35,4.87c0.07,0.46,0.14,1,0.14,1.55c0-0.08,0-0.08,0-0.15l4.69-5.18
		c0.07,0.23,0.14,0.54,0.21,0.77l-4.83,5.49c-0.07,0.62-0.07,1.24-0.21,1.78L339.3,18c0.07,0.23,0.07,0.54,0.14,0.85l-5.8,6.57
		c-0.48,1.47-1.17,2.7-2,3.79l7.94-8.89c0.07,0.31,0.07,0.62,0.07,1l-12.08,13.52c0.34,0.15,0.62,0.31,0.97,0.54l11.04-12.37
		c-0.07,0.39-0.14,0.85-0.21,1.24l-10.28,11.52c0.28,0.23,0.55,0.46,0.83,0.7l8.9-9.97c-0.21,0.7-0.48,1.39-0.83,2.01l-7.52,8.42
		c0.21,0.31,0.48,0.54,0.69,0.85l2.97-3.32c0.14,0.15,0.34,0.23,0.55,0.39l-3.04,3.48c0.21,0.31,0.41,0.62,0.62,0.93l3.31-3.71
		c0.14,0.15,0.34,0.31,0.48,0.46l-3.38,3.86c-0.07-0.15-0.14-0.23-0.21-0.39c0.28,0.46,0.48,0.93,0.69,1.39l3.66-4.1
		c0.14,0.23,0.28,0.39,0.48,0.62l-3.79,4.17c0.14,0.39,0.28,0.85,0.34,1.24l4.07-4.48c0.07,0.15,0.21,0.39,0.34,0.62l-4.21,4.71
		c0,0.31,0.07,0.62,0.07,0.93v0.62l4.62-5.18c0.07,0.23,0.21,0.46,0.28,0.77l-4.9,5.49v1.62l5.24-5.87
		c0.07,0.23,0.07,0.54,0.14,0.85l-5.38,6.03v1.62l5.52-6.18c0,0.23,0,0.39,0,0.54v0.54L334.13,51.62z M308.87,14.52l1.31-1.47
		l-0.76-0.77l-0.55,0.62V14.52z M308.87,17.22l2.48-2.86l-0.69-0.77l-1.79,2.01V17.22z M308.87,19.85l3.73-4.17l-0.76-0.77
		l-2.97,3.4V19.85z M308.87,22.56l4.97-5.49l-0.76-0.85l-4.21,4.71V22.56z M327.43,28.51l-0.34-0.31c3.11-2.4,2.97-8.58-0.62-10.36
		c-0.62-0.31-1.38-0.46-2.21-0.46c-5.17,0-10.14,0-10.14,0v0.39l-5.24,5.87v1.62l5.24-5.87v1.08l-5.24,5.87v1.55l5.24-5.8v1
		l-5.24,5.87v1.62l5.24-5.87v1.08l-5.24,5.87v1.62l5.24-5.87v1.08l-5.04,5.56h1.45l4.42-4.95h0.97l-4.42,4.95h1.45l4.42-4.95h0.97
		l-4.42,4.95h1.45l4.42-4.95h0.9l-4.42,4.95h1.45l4.42-4.95h0.97l-4.42,4.95h1.45l4.42-4.95c0.41,0,0.76-0.08,1.1-0.15l-4.55,5.1
		h1.45L327.43,28.51z M308.87,35.93L309.7,35l-0.69-0.77l-0.14,0.15V35.93z M308.87,38.63l2-2.24l-0.69-0.85l-1.31,1.47V38.63z
		 M308.87,41.34l3.24-3.63l-0.76-0.77l-2.48,2.78V41.34z M313.29,39.09l-0.76-0.85l-3.66,4.17v1.55L313.29,39.09z M324.88,34.07
		l3.86-4.33l-0.76-0.7l-4.55,5.02h1.38H324.88z M330.4,30.59c-0.14,0.15-0.28,0.23-0.35,0.39l-0.76-0.77l-3.52,3.94
		c0.34,0.08,0.76,0.23,1.1,0.39L330.4,30.59z"/>
	<path d="M371.53,12.35v1.62l4.83-5.41v1.08l-4.83,5.41v1.62l4.83-5.41v1.08l-4.83,5.41v1.62l4.83-5.49v1.08l-4.83,5.41v1.62
		l4.83-5.41v1.08l-4.83,5.41v1.62l4.83-5.41v1.08l-4.83,5.41v1.62l4.83-5.41v1.08l-4.83,5.41v1.62l4.83-5.49v1.08l-4.83,5.41v1.62
		l4.83-5.41v1.08l-4.83,5.41v1.62l4.83-5.41v1.08l-4.83,5.41v1.62l4.83-5.41v1.08l-4.83,5.41v1.62l4.83-5.41v1l-4.83,5.41v1.62
		l4.83-5.41v1.08l-4.83,5.41v1.62l4.83-5.41v1.08l-4.83,5.41v1.62l4.83-5.41v1.08l-4.83,5.41l-3.24,3.63l0.48,1.08l7.59-8.5v1
		l-7.31,8.19l0.48,1.08l6.83-7.65v1.08l-6.35,7.19l0.9,0.54l5.45-6.11v1.08l-4.83,5.41l0.97,0.54l3.86-4.33v1.08l-3.24,3.63
		l0.9,0.62l2.35-2.63v1l-1.72,1.93l0.97,0.62l0.76-0.93v1.08l-0.14,0.23l0.14,0.08h-9.66l-15.53-33.85l-4.42,4.95v1.62l4.83-5.41
		v1.08l-4.83,5.41v1.62l4.83-5.41v1l-4.83,5.41v1.62l4.83-5.41v1.08l-4.83,5.41v1.62l4.83-5.41v1.08l-4.83,5.41v1.62l4.83-5.41v1.08
		l-4.83,5.41v1.62l4.83-5.41v1l-4.83,5.41v1.62l4.83-5.41v1.08l-4.83,5.41v1.62l4.83-5.41v1.08l-4.83,5.41v1.62l4.83-5.41v1.08
		l-4.55,5.1l0.76,0.77l3.79-4.25v1l-3.31,3.79l0.69,0.77l2.62-2.94v1.08l-2.14,2.4l0.76,0.85l1.38-1.62v1.08l-0.9,1.08l0.69,0.77
		l0.21-0.23v0.46h-9.66V6.87h0.97l-0.34,0.39l0.9,0.54l0.9-0.93h0.9l-1.17,1.31l0.97,0.54l1.66-1.85h0.97l-2,2.24l0.97,0.62
		l2.48-2.86h0.97l-2.9,3.25l0.97,0.54l3.38-3.79h0.07l0.28,0.62l-3.24,3.63l0.55,1.08l3.24-3.63l0.28,0.7l-3.24,3.63l0.48,1.08
		l3.24-3.63l0.34,0.7l-3.24,3.63l0.48,1.08l3.24-3.63l0.34,0.7l-3.24,3.63l0.48,1.08l3.24-3.63l0.34,0.7l-3.24,3.63l0.48,1.08
		l3.24-3.63l0.28,0.7l-3.17,3.63l0.48,1.08l3.24-3.63l0.28,0.7l-3.24,3.63l0.55,1.08l3.17-3.63l0.34,0.7l-3.24,3.63l0.48,1.08
		l3.24-3.63l0.34,0.7l-3.24,3.63l0.48,1l3.24-3.56l0.35,0.7L356,27.12l0.48,1l3.24-3.55l0.28,0.7l-3.17,3.56l0.48,1.08l3.17-3.56
		l0.34,0.7l-3.17,3.55l0.48,1.08l3.17-3.56l0.35,0.7l-3.24,3.56l0.55,1.08l3.17-3.56l0.35,0.7l-3.24,3.56l0.48,1.08l3.24-3.56
		l0.28,0.7l-3.17,3.56l0.48,1.08l3.24-3.56l0.28,0.7l-3.17,3.56l0.48,1.08l3.17-3.56l0.35,0.7l-3.17,3.56l0.48,1.08l3.17-3.56
		l0.34,0.7l-3.17,3.56l0.48,1.08l3.17-3.56l0.34,0.7l-3.17,3.56l0.48,1.08l3.17-3.56l-0.34-0.7v-33h0.14v0.08l0.97,0.54l0.48-0.62
		h0.97l-0.83,0.93l0.97,0.54l1.31-1.47h0.97l-1.66,1.85l0.97,0.54l2.14-2.4h0.97l-2.55,2.78v1.62l3.93-4.41h0.9v0.08L371.53,12.35z
		 M346.75,20.24l0.83-0.93l-0.48-1.08l-0.34,0.39V20.24z M346.75,22.94l1.66-1.85l-0.48-1.08l-1.17,1.31V22.94z M346.75,25.65
		l2.48-2.78l-0.48-1.08l-2,2.24V25.65z M346.75,28.27l3.31-3.63l-0.48-1.08l-2.83,3.09V28.27z M350.89,26.42l-0.55-1.08l-3.59,4.02
		v1.62L350.89,26.42z M364.63,45.9l3.17-3.56l-0.48-1.08l-3.17,3.56L364.63,45.9z M365.45,47.67l3.17-3.56l-0.48-1.08l-3.17,3.56
		L365.45,47.67z M366.28,49.37l3.17-3.48l-0.48-1.08l-3.17,3.56L366.28,49.37z M367.11,51.15l3.17-3.56l-0.48-1l-3.17,3.56
		L367.11,51.15z M371.18,49.3l-0.55-1l-3.17,3.56l0.48,1.08L371.18,49.3z"/>
	<path d="M382.63,12.89v1.62l4.83-5.41v1.08l-4.83,5.41v1.62l4.83-5.41v1l-4.83,5.41v1.62l4.83-5.41v1.08l-4.83,5.41v1.62l4.83-5.41
		v1.08l-4.83,5.41v1.62l4.83-5.41v1.08l-4.83,5.41v1.62l4.83-5.41v1l-4.83,5.41v1.62l4.83-5.41v1.08l-4.83,5.41v1.62l4.83-5.41v1.08
		l-4.83,5.41V36l4.83-5.41v1.08l-4.83,5.41v1.62l4.83-5.41v1l-4.83,5.49v1.55l4.83-5.41v1.08l-4.83,5.41v1.62l4.83-5.41v1.08
		l-4.83,5.41v1.62l4.83-5.41v1.08l-4.83,5.41v1.62l4.83-5.41v1l-4.83,5.49v1.55l4.83-5.41v1.08l-4.83,5.41v1.62l4.83-5.41v1.08
		l-4.69,5.26l0.69,0.85l4-4.48v1.08l-3.52,3.94l0.76,0.77l2.76-3.09v1l-2.28,2.63l0.69,0.77l1.59-1.78v1.08l-1.1,1.24l0.76,0.85
		l0.34-0.46v0.85h-9.66V6.87h0.62l-0.34,0.39l0.76,0.77l1.04-1.16h0.97l-1.52,1.7l0.69,0.77l2.28-2.47h0.9l-2.69,3.01l0.76,0.77
		l3.38-3.79h0.97l-3.86,4.33l0.69,0.85l4.62-5.18h0.41v0.62L382.63,12.89z"/>
	<path d="M425,60.97h-10.35l-2.69-11.36h-11.87l-0.41-0.62l-6.28,7.03l-0.07,0.08l0.69,0.85l5.87-6.65l-0.34,1.39l-5.11,5.8
		l0.69,0.77l3.93-4.33l-0.34,1.47l-3.11,3.48l0.69,0.77l1.86-2.09l-0.35,1.47l-1.04,1.24l0.62,0.7h-10.35l12.21-54.1l0.48,0.62
		l0.55-0.62h0.97l-1.1,1.24l0.62,0.93l1.93-2.16h0.97l-2.48,2.78l0.62,0.85l3.24-3.63h0.97l-3.79,4.25l0.14,0.23l-0.35,1.62
		l5.45-6.11h0.97l-2.14,2.4l0.97,0.62l2.62-3.01h0.97l-3.04,3.32l0.97,0.62l3.52-3.94h0.48l0.07,0.46l-3.45,3.86l0.28,0.15
		l0.21,0.93l3.24-3.71l0.21,0.85l-3.31,3.71l0.28,1.31l3.31-3.71l0.21,0.85l-3.31,3.79l0.21,1.31l3.38-3.79l0.21,0.85l-3.38,3.79
		l0.28,1.31l3.38-3.79l0.21,0.85l-3.45,3.79l0.28,1.31l3.45-3.86l0.21,0.85l-3.45,3.94l0.28,1.31l3.45-3.94l0.21,0.85l-3.52,3.94
		l0.28,1.31l3.52-3.94l0.21,0.85l-3.52,3.94l0.21,1.31l3.59-3.94l0.21,0.85l-3.59,4.02l0.28,1.31l3.59-4.1l0.21,0.85l-3.66,4.1
		l0.28,1.31l3.66-4.1l0.21,0.85l-3.66,4.1l0.28,1.39l3.66-4.17l0.21,0.85l-3.73,4.17l0.28,1.31l3.73-4.25l0.21,0.85l-3.73,4.25
		l0.21,1.31l3.79-4.25l0.21,0.85l-3.79,4.25l0.28,1.39l3.79-4.33l0.21,0.85l-3.86,4.33l0.28,1.31l3.86-4.33l0.21,0.85l-3.86,4.33
		l0.28,1.31l3.93-4.41l0.14,0.85l-3.93,4.48l0.28,1.31l4-4.48l0.14,0.85l-3.93,4.48l0.21,1.31l4.07-4.48l0.14,0.85l-4,4.48
		l0.28,1.31l4.07-4.48l0.14,0.85l-4.07,4.56l0.28,1.31l4.14-4.64l0.14,0.85l-4.07,4.64l0.28,1.31l4.14-4.64l0.14,0.85l-3.73,4.25
		l0.83,0.62l3.24-3.56l0.14,0.85l-2.83,3.17l0.9,0.7l2.28-2.55l0.14,0.85l-1.86,2.09l0.83,0.7l1.38-1.55l0.14,0.85l-0.97,1.08
		l0.9,0.7l0.41-0.46l0.14,0.85v0.08H425z M399.26,48.37l-0.62-1l-4.55,5.18l-0.41,2.09L399.26,48.37z M394.36,51.15l3.86-4.41
		l-0.62-0.93l-2.83,3.25L394.36,51.15z M395.05,47.67l2.21-2.47l-0.62-0.93l-1.17,1.31L395.05,47.67z M406.16,43.27l4.07-4.56
		l-0.55-0.39l-3.66-19.09v-1.62l-6.35,7.11l-0.41,2.16l6.76-7.65l-0.28,1.39l-6.76,7.57l-0.41,2.09l6.76-7.57l-0.21,1.31l-6.83,7.65
		l-0.48,2.09l6.9-7.65l-0.28,1.31l-6.9,7.73l-0.41,2.09l6.9-7.73l-0.21,1.39l-6.97,7.73l-0.41,2.09l6.97-7.81l-0.28,1.39l-6.97,7.81
		l-0.21,1.16l-0.21,0.93l0.48-0.54l-0.28-0.39h0.62l6.14-6.88l-0.21,1.31l-4.97,5.56h1.45l4.42-4.95h0.97l-4.42,4.95h1.45l4.42-4.95
		h0.97l-4.42,4.95h1.45l4.42-4.95h0.97l-4.42,4.95H406.16z M399.95,23.41l6.07-6.8v-1.62l-5.66,6.34L399.95,23.41z M400.64,19.93
		l5.38-6.03v-1.62l-4.97,5.56L400.64,19.93z M401.33,16.45l4.69-5.26V9.57l-4.28,4.79L401.33,16.45z M408.58,43.27l3.1-3.48
		l-0.9-0.62l-3.66,4.1H408.58z M410.99,43.27l2.07-2.4l-0.83-0.62l-2.69,3.01H410.99z M413.41,43.27l1.1-1.24l-0.9-0.7l-1.66,1.93
		H413.41z M415.89,43.11l-0.83-0.7l-0.69,0.85h1.38L415.89,43.11z"/>
	<path d="M473.23,7.48l-4.14,4.64l0.76,0.77l3.38-3.79v1l-2.9,3.32l0.69,0.77l2.21-2.47v1.08l-1.73,1.93l0.69,0.77l1.04-1.08v1
		l-0.55,0.62l0.55,0.62h-13.87l-0.83-0.77l-4.49,5.1v1.62l5.31-5.95v1l-5.31,5.95v1.62l5.31-5.95v1l-5.31,6.03v1.62l5.31-6.03v1.08
		l-5.31,5.95v1.62l5.31-5.95v1l-5.31,6.03v1.55l5.31-5.95v1.08l-5.31,5.95v1.62l5.31-5.95v1l-5.31,6.03v1.55l5.31-5.95v1.08
		l-5.31,5.95v1.62l5.31-6.03v1.08l-5.31,6.03v1.55l5.31-5.95v1.08l-5.31,5.95v1.62l5.31-6.03v1.08l-5.31,6.03v1.55l5.31-5.95v1.08
		l-5.31,5.95v1.62l5.31-6.03v1.08l-5.31,5.95v1.62l5.31-5.95v1.08l-5.04,5.64l0.69,0.85l4.35-4.95v1.08l-3.86,4.33l0.69,0.85
		l3.17-3.56v1l-2.69,3.01l0.76,0.85l1.93-2.24v1.08l-1.45,1.7l0.69,0.77l0.76-0.85v1l-0.28,0.39l0.28,0.31h-10.7V16.68h-13.8V6.87
		h0.9l-0.48,0.54l0.76,0.77l1.1-1.31h0.97l-1.66,1.85l0.76,0.77l2.35-2.63h0.97l-2.83,3.17l0.69,0.77l3.52-3.94h0.97l-4,4.48
		l0.41,0.46h0.62l4.42-4.95h0.97l-4.42,4.95h1.45l4.35-4.95h0.97l-4.42,4.95h1.45l4.42-4.95h0.9l-4.35,4.95h1.45l4.35-4.95h0.97
		l-4.42,4.95h1.45l4.42-4.95h0.9l-4.35,4.95h1.45l4.35-4.95h0.97l-4.42,4.95h1.45l4.42-4.95h0.9l-4.35,4.95h1.38l4.42-4.95h0.97
		l-4.42,4.95h1.45l4.42-4.95h0.9l-4.35,4.95h1.38l4.42-4.95h0.97l-4.42,4.95h1.45l4.35-4.95h0.97l-4.35,4.95h1.38l4.42-4.95h0.97
		l-4.42,4.95h1.45l4.35-4.95h0.41V7.48z M454.05,14.59l1.38-1.55l-0.76-0.7l-0.62,0.62V14.59z M454.05,17.3l2.69-3.01l-0.83-0.77
		l-1.86,2.16V17.3z M458.05,15.45l-0.83-0.7l-3.17,3.56v1.62L458.05,15.45z"/>
	<path d="M505.11,7.25l-4.49,5.02l0.69,0.85l3.79-4.25v1.08l-3.31,3.71l0.69,0.85l2.62-2.94v1.08l-2.14,2.4l0.69,0.85l1.45-1.62
		v1.08l-1.04,1.08l0.76,0.85l0.28-0.31v0.62h-22.22l-0.69-0.85l-4.07,4.64v1.62l4.76-5.41v1.08l-4.76,5.33v1.62l4.76-5.33v1.08
		l-4.76,5.33v1.62l4.76-5.33v1l-4.76,5.41v1.62l4.76-5.41v1.08l-4.76,5.41v1.47h0.14l4.76-5.41h0.97l-4.83,5.41h1.45l4.83-5.41h0.97
		l-4.83,5.41h1.45l4.83-5.41h0.9l-4.76,5.41h1.45l4.76-5.41h0.97l-4.76,5.41h1.45l4.76-5.41h0.97l-4.83,5.41h1.45l4.83-5.41H496
		l-4.83,5.41h0.76l0.34,0.39l4.14-4.64v1.08l-3.66,4.1l0.69,0.85l2.97-3.32v1.08l-2.55,2.78l0.69,0.85l1.86-2.01v1.08l-1.38,1.47
		l0.69,0.85l0.69-0.7v1.08l-0.21,0.15l0.21,0.23h-13.52l-0.62-0.7l-4.14,4.64v1.62l4.76-5.41v1.08l-4.76,5.33v1.62l4.76-5.33v1.08
		l-4.76,5.33v1.62l4.76-5.33v1l-4.76,5.41v1.62l4.76-5.41v1.08l-4.76,5.41v1.62l4.76-5.41v0.39h0.62l-4.76,5.41h1.45l4.76-5.41h0.97
		l-4.83,5.41h1.45l4.83-5.41h0.97l-4.83,5.41h1.45l4.83-5.41h0.9l-4.76,5.41h1.45l4.76-5.41h0.97l-4.76,5.41h1.45l4.76-5.41h0.97
		l-4.83,5.41h1.45l4.83-5.41h0.97l-4.83,5.41h1.45l4.83-5.41h0.9l-4.76,5.41h1.45l4.76-5.41h0.97l-4.76,5.41h1.45l4.76-5.41h0.97
		v0.08l-4.83,5.33h0.34l0.55,0.62l3.93-4.33v1l-3.45,3.86l0.69,0.85l2.76-3.09v1.08l-2.35,2.55l0.69,0.85l1.66-1.78v1.08l-1.17,1.24
		l0.69,0.85l0.48-0.46v1H473.3V6.87h0.97l-0.48,0.54l0.76,0.77l1.17-1.31h0.97l-1.66,1.85l0.69,0.85l2.42-2.71h0.97l-2.9,3.25
		l0.76,0.77l3.59-4.02h0.9l-4.07,4.56l0.76,0.77v0.08V12.2l4.76-5.33h0.97l-4.76,5.33h1.45l4.76-5.33h0.97l-4.83,5.33h1.45
		l4.83-5.33h0.97l-4.83,5.33h1.45l4.83-5.33h0.9l-4.76,5.33h1.45l4.76-5.33h0.97l-4.76,5.33h1.45l4.76-5.33h0.97l-4.76,5.33h1.38
		l4.83-5.33h0.97l-4.83,5.33h1.45l4.83-5.33h0.9l-4.76,5.33h1.45l4.76-5.33h0.97l-4.76,5.33h1.45l4.76-5.33h0.62V7.25z M478.13,14.9
		l1.17-1.31l-0.69-0.85l-0.48,0.54V14.9z M478.13,17.61l2.42-2.71l-0.76-0.77l-1.66,1.85V17.61z M481.72,16.3l-0.69-0.85l-2.9,3.25
		v1.62L481.72,16.3z M478.13,34.77v1.62l1.24-1.39l-0.69-0.77L478.13,34.77z M479.85,35.54l-1.73,1.93v1.62l2.48-2.78L479.85,35.54z
		 M478.13,40.18v1.62l3.66-4.1l-0.76-0.85L478.13,40.18z"/>
	<path d="M538.37,50.69h0.21c-2.83,6.34-8.62,10.67-15.32,10.67c-6.69,0-12.49-4.33-15.32-10.67c-1.1-2.55-1.73-5.41-1.73-8.42
		V25.57c0-3.01,0.62-5.87,1.73-8.42c0.28-0.7,0.62-1.39,1.04-2.01l4.97-5.56c0.69-0.46,1.38-0.93,2.14-1.31l-8,8.97l0.97,0.54
		l9.38-10.51c0.41-0.15,0.83-0.23,1.24-0.39l-10,11.21l1.04,0.54l10.7-12.06c0.34,0,0.69-0.08,1.04-0.08l-11.11,12.44l0.97,0.54
		l0.28-0.23c1.17-2.78,3.1-4.95,5.59-6.26l5.8-6.49c0.28,0,0.55,0.08,0.83,0.08l-5.04,5.72c0.55-0.23,1.17-0.39,1.86-0.46l4.48-5.1
		c0.28,0.08,0.55,0.15,0.83,0.23l-4.28,4.71c0.21,0,0.41,0,0.62,0c0.28,0,0.55,0,0.83,0l4-4.41c0.21,0.08,0.48,0.15,0.69,0.23
		l-3.86,4.33c0.41,0.08,0.83,0.15,1.24,0.23l3.66-4.1c0.28,0.08,0.48,0.23,0.69,0.31l-3.59,4.02c0.35,0.15,0.69,0.31,1.04,0.46
		l3.52-3.94c0.21,0.15,0.41,0.31,0.62,0.39l-3.45,3.86c0.28,0.23,0.62,0.39,0.9,0.62l3.38-3.79c0.21,0.15,0.41,0.23,0.55,0.39
		l-3.38,3.86c0.28,0.15,0.55,0.46,0.83,0.7l3.38-3.79c0.21,0.15,0.34,0.31,0.48,0.46l-3.31,3.79c-0.07,0-0.07,0-0.07,0
		c0.28,0.31,0.48,0.54,0.76,0.85l3.38-3.79c0.14,0.15,0.35,0.31,0.48,0.54l-3.17,3.56l1.31,0.15l2.48-2.86
		c0.14,0.23,0.28,0.46,0.41,0.62l-2.07,2.32l1.31,0.15l1.38-1.47c0.14,0.23,0.21,0.39,0.34,0.62l-0.83,1l1.24,0.15l0.07-0.08
		c0.07,0,0.07,0.08,0.07,0.08l-8.9,4.71c-0.9-2.94-3.45-5.1-6.42-5.1c-2.97,0-5.52,2.16-6.42,5.1l-0.62-0.31l-4.83,5.41v1.7
		l5.17-5.87c-0.07,0.39-0.14,0.85-0.14,1.24l-5.04,5.64v1.62l5.04-5.64v1.08l-5.04,5.64v1.62l5.04-5.64v1.08l-5.04,5.64v1.62
		l5.04-5.64v1.08l-5.04,5.64v1.62l5.04-5.64v1.08l-5.04,5.64v1.62l5.04-5.64v1.08l-5.04,5.64c0,0.46,0.07,1,0.07,1.47l4.97-5.49
		v1.08l-4.76,5.33c0.07,0.46,0.14,0.85,0.28,1.24l4.49-4.95v1.08l-4.21,4.71c0.07,0.23,0.14,0.39,0.21,0.62
		c0.07,0.15,0.14,0.31,0.21,0.46l3.86-4.25c0,0.31,0.07,0.62,0.14,0.93l-3.66,4.02c0.21,0.39,0.34,0.7,0.55,1l3.45-3.86
		c0.07,0.23,0.21,0.46,0.34,0.7l-3.38,3.79c0.21,0.31,0.48,0.62,0.69,0.85l3.24-3.63c0.14,0.23,0.28,0.39,0.48,0.54l-3.24,3.63
		c0.28,0.31,0.48,0.54,0.76,0.77l3.24-3.63c0.14,0.15,0.34,0.31,0.55,0.46l-3.24,3.63c0.28,0.23,0.62,0.39,0.9,0.62l3.31-3.71
		c0.21,0.15,0.41,0.23,0.69,0.31l-3.38,3.79c0.34,0.15,0.69,0.31,1.04,0.46l3.59-4.02c0.21,0.08,0.41,0.08,0.69,0.08
		c0.07,0,0.14,0,0.21,0l-3.8,4.25c0.35,0.15,0.76,0.23,1.1,0.31l4.42-4.87c0.62-0.23,1.17-0.54,1.72-0.93l-5.31,5.95
		c0.48,0.08,0.9,0.15,1.38,0.15l8.28-9.27l0.62,0.31l-7.94,8.96c0.55-0.08,1.1-0.15,1.66-0.23l7.25-8.19l0.69,0.39l-6.62,7.42
		c0.97-0.39,1.86-0.85,2.69-1.47l4.9-5.49l0.69,0.39l-2.07,2.24l1.59-0.08l1.45-1.62l0.62,0.31l-1.04,1.16l1.59-0.08l0.48-0.54
		l0.62,0.31L538.37,50.69z M511.39,25.96l4.21-4.71l-1.04-0.54l-3.17,3.56c0,0.23,0,0.46,0,0.7V25.96z M511.53,23.1l2.42-2.78
		l-0.97-0.46l-1.04,1.16C511.73,21.71,511.59,22.4,511.53,23.1z M528.98,47.67c0.34-0.46,0.55-1.08,0.76-1.62l0.48,0.23
		L528.98,47.67z"/>
	<path d="M569.69,14.98v1.62l4.9-5.49v1.08l-4.9,5.41v1.62l4.9-5.41v1.08l-4.9,5.41v1.62l4.9-5.41v1.08l-4.9,5.41v1.62l4.9-5.41v1
		l-4.9,5.49v1.62l4.9-5.49v1.08l-4.9,5.41v1.62l4.9-5.41v1.08l-4.9,5.41v1.62l4.9-5.41v1.08l-4.9,5.41v1.62l4.9-5.41v1.08l-4.9,5.41
		v1.62l4.9-5.49v1.08l-4.9,5.41v1.62l4.9-5.41v1.08l-4.9,5.41v1.62l4.9-5.41v1.08l-4.9,5.41v1.62l4.9-5.41v1.08l-4.9,5.41v1.62
		l4.9-5.49v1.08l-4.9,5.41v1.62l4.9-5.41v1.08l-4.9,5.41v1.62l4.9-5.41v1.08l-4.9,5.41v0.39l0.62,0.62l4.28-4.79v1.08l-3.86,4.25
		l0.76,0.77l3.11-3.4v1l-2.62,2.94l0.76,0.77l1.86-2.09v1.08l-1.45,1.55l0.76,0.85l0.69-0.77v1.08l-0.21,0.15l0.21,0.23h-9.73V38.55
		h-15.04l-0.62-0.62l-4.21,4.71v1.62l4.83-5.41v1.08l-4.83,5.41v1.62l4.83-5.41v1.08l-4.83,5.41v1.62l4.83-5.49v1.08l-4.83,5.41
		v1.62l4.83-5.41v1.08l-4.83,5.41v1.62l4.83-5.41v1.08l-4.62,5.18l0.76,0.77l3.86-4.33v1.08l-3.45,3.79l0.76,0.85l2.69-3.09v1.08
		l-2.21,2.47l0.76,0.85l1.45-1.7v1.08l-1.03,1.16l0.76,0.77l0.28-0.31v0.62h-9.66V6.87h0.83l-0.41,0.46l0.69,0.77l1.17-1.24h0.9
		l-1.59,1.78l0.76,0.85l2.28-2.63h0.97l-2.76,3.09l0.69,0.85l3.52-3.94h0.97l-4,4.48l0.76,0.77l4.69-5.26h0.21v0.85l-4.83,5.41v1.62
		l4.83-5.41v1l-4.83,5.49v1.62l4.83-5.49v1.08l-4.83,5.41v1.62l4.83-5.41v1.08l-4.83,5.41v1.62l4.83-5.41v1.08l-4.83,5.41v1.62
		l4.83-5.41v1l-4.83,5.49v1.62l4.83-5.49v1.08l-4.83,5.41v1.62l4.83-5.41v1.08l-4.83,5.41v1.62l4.83-5.41v0.46h0.55l-4.42,4.95h1.45
		l4.42-4.95h0.97l-4.49,4.95h1.45l4.48-4.95h0.97l-4.49,4.95h1.45l4.48-4.95h0.9l-4.42,4.95h1.45l4.42-4.95h0.97l-4.42,4.95H557
		l4.42-4.95h0.97l-4.49,4.95h1.45l4.49-4.95h0.97l-4.49,4.95h1.45l3.79-4.25l-0.69-0.7V6.87h0.07l0.69,0.85l0.76-0.85h0.97
		l-1.24,1.39l0.76,0.77l1.93-2.16h0.97l-2.42,2.71l0.69,0.77l3.17-3.48h0.97l-3.66,4.02l0.76,0.85l4.28-4.87h0.97l-4.83,5.41v1.62
		l4.9-5.41v1L569.69,14.98z M544.99,36.24l1.24-1.39l-0.76-0.77l-0.48,0.54V36.24z M544.99,38.94l2.48-2.86l-0.76-0.77l-1.73,2.01
		V38.94z M548.72,37.39l-0.76-0.77l-2.97,3.32v1.62L548.72,37.39z M566.79,30.59l-0.69-0.77l-3.38,3.71h1.45L566.79,30.59z
		 M566.59,33.53l1.52-1.7l-0.76-0.77l-2.21,2.47H566.59z M569.35,33.14l-0.76-0.77l-1.1,1.16h1.45L569.35,33.14z"/>
</g>
<g>
</g>
<g>
</g>
<g>
</g>
<g>
</g>
<g>
</g>
<g>
</g>
</svg>
